<!-- Generator: Adobe Illustrator 21.1.0, SVG Export Plug-In  -->
<svg version="1.1"
	 xmlns="http://www.w3.org/2000/svg" xmlns:xlink="http://www.w3.org/1999/xlink" xmlns:a="http://ns.adobe.com/AdobeSVGViewerExtensions/3.0/"
	 x="0px" y="0px" width="378.37px" height="510.808px" viewBox="0 0 378.37 510.808"
	 style="overflow:scroll;enable-background:new 0 0 378.37 510.808;" xml:space="preserve">
<style type="text/css">
	.st0{fill:#FFFFFF;}
	.st1{fill:#0E2B4C;}
</style>
<defs>
</defs>
<path class="st0" d="M41.271,213.535c0.003-33.645,0.005-67.29,0.001-100.935c-0.001-7.327,1.546-9.122,9.133-9.167
	c24.369-0.145,48.538-2.101,72.209-8.155c20.148-5.153,39.41-12.302,54.451-27.559c2.892-2.934,5.162-6.478,7.74-9.725
	c3.032-3.82,7.473-3.997,9.912,0.025c8.438,13.912,21.402,22.041,35.759,28.372c23.293,10.27,47.974,14.368,73.169,15.931
	c8.802,0.546,17.627,0.719,26.442,1.045c6.082,0.225,8.107,2.103,8.112,8.184c0.026,30.151-0.042,60.302-0.054,90.454
	c-0.011,29.649-0.204,59.301,0.088,88.948c0.185,18.759-0.141,37.241-9.209,54.442c-9.858,18.7-23.522,34.267-39.202,48.115
	c-28.414,25.092-60.691,44.236-94.888,60.234c-2.765,1.294-7.145,1.544-9.816,0.269c-40.155-19.164-78.187-41.603-109.317-74.065
	c-14.894-15.531-27.625-32.641-32.176-54.216c-1.8-8.535-2.174-17.481-2.255-26.249C41.102,270.835,41.269,242.184,41.271,213.535z
	 M76.965,258.07c0.588,1.412,0.613,1.603,0.72,1.713c32.415,33.05,64.82,66.11,97.284,99.112c3.178,3.231,5.756,2.68,7.738-1.504
	c2.7-5.7,4.949-11.621,7.793-17.243c22.488-44.456,50.646-85.157,83.024-122.879c13.31-15.508,28.174-29.677,42.15-44.625
	c1.585-1.695,3.43-5.278,2.687-6.645c-3.023-5.566-7.007-10.61-10.643-15.855c-55.729,34.621-103.769,76.604-146.11,125.233
	c-17.275-13.492-34.211-26.685-51.089-39.951c-1.957-1.538-3.604-2.952-6.035-0.863C95.288,242.463,86.051,250.315,76.965,258.07z"
	/>
<path class="st1" d="M76.965,258.07c9.086-7.755,18.323-15.607,27.519-23.507c2.431-2.089,4.078-0.675,6.035,0.863
	c16.878,13.266,33.814,26.458,51.089,39.951c42.341-48.629,90.382-90.612,146.11-125.233c3.636,5.246,7.62,10.289,10.643,15.855
	c0.743,1.367-1.102,4.95-2.687,6.645c-13.976,14.948-28.839,29.118-42.15,44.625c-32.378,37.723-60.536,78.423-83.024,122.879
	c-2.844,5.623-5.093,11.544-7.793,17.243c-1.982,4.184-4.56,4.735-7.738,1.504c-32.464-33.002-64.868-66.062-97.284-99.112
	C77.577,259.672,77.552,259.482,76.965,258.07z"/>
<g>
	<path class="st1" d="M174.303,15.094c-13.529,14.162-30.593,22.731-48.746,29.241c-24.885,8.925-50.678,13.511-77.004,15.172
		c-12.788,0.807-25.595,1.35-38.4,1.829C2.898,61.607,0.109,63.948,0.05,71.23c-0.025,3.09-0.037,6.181-0.05,9.271v68.639
		c0.073,47.347,0.274,94.695,0,142.038v32.187c1.471,27.508,11.671,51.451,28.559,73.3c23.664,30.617,53.598,54.171,86.078,74.446
		c22.732,14.19,46.462,26.776,69.133,39.696h9.55c9.454-4.74,18.496-9.113,27.377-13.776
		c37.864-19.881,73.549-42.955,104.799-72.399c17.932-16.896,33.52-35.602,44.016-58.165c4.37-9.395,7.348-19.109,8.858-29.133
		V65.26c-1.51-3.034-4.711-3.812-11.089-3.902c-34.366-0.489-68.462-3.27-101.6-13.091c-22.692-6.725-44.154-15.993-60.897-33.503
		c-4.168-4.359-7.469-9.555-11.398-14.764h-7.378C182.041,5.215,178.616,10.579,174.303,15.094z M194.716,58.019
		c8.438,13.912,21.402,22.041,35.759,28.372c23.293,10.27,47.974,14.368,73.169,15.931c8.802,0.546,17.627,0.719,26.442,1.045
		c6.082,0.225,8.107,2.103,8.112,8.184c0.026,30.151-0.042,60.302-0.053,90.454c-0.011,29.649-0.204,59.301,0.088,88.948
		c0.185,18.759-0.141,37.241-9.209,54.442c-9.858,18.699-23.522,34.267-39.202,48.115c-28.413,25.092-60.691,44.236-94.887,60.234
		c-2.765,1.293-7.145,1.543-9.815,0.269c-40.155-19.164-78.187-41.603-109.318-74.064c-14.894-15.531-27.625-32.642-32.177-54.216
		c-1.8-8.535-2.174-17.481-2.255-26.249c-0.267-28.647-0.1-57.297-0.1-85.947c0.005-33.645,0.008-67.29,0.003-100.935
		c-0.001-7.327,1.546-9.122,9.133-9.167c24.369-0.146,48.538-2.101,72.208-8.155c20.148-5.153,39.41-12.302,54.451-27.559
		c2.892-2.934,5.162-6.479,7.74-9.725C187.836,54.174,192.276,53.997,194.716,58.019z"/>
</g>
</svg>