<!-- Generator: Adobe Illustrator 21.1.0, SVG Export Plug-In  -->
<svg version="1.1"
	 xmlns="http://www.w3.org/2000/svg" xmlns:xlink="http://www.w3.org/1999/xlink" xmlns:a="http://ns.adobe.com/AdobeSVGViewerExtensions/3.0/"
	 x="0px" y="0px" width="293.31px" height="254.076px" viewBox="0 0 293.31 254.076"
	 style="overflow:scroll;enable-background:new 0 0 293.31 254.076;" xml:space="preserve">
<style type="text/css">
	.st0{fill:#0E2B4C;}
</style>
<defs>
</defs>
<path class="st0" d="M217.344,51.879c16.331-0.004,32.662-0.06,48.992,0.011c16.772,0.073,26.786,10.022,26.886,26.806
	c0.107,17.997,0.125,35.995,0.003,53.991c-0.117,17.242-9.91,26.997-27.032,27.166c-6.832,0.067-13.675,0.256-20.493-0.059
	c-4.919-0.227-8.466,1.574-11.923,4.944c-9.064,8.837-18.447,17.346-27.687,26.002c-2.282,2.138-4.72,4.036-7.99,2.466
	c-3.4-1.632-3.016-4.944-2.731-7.902c0.639-6.631,1.376-13.258,2.32-19.851c0.566-3.952-0.897-5.6-4.804-5.576
	c-8.498,0.05-16.998,0.052-25.495-0.034c-16.931-0.17-26.986-10.203-27.091-27.206c-0.111-17.996-0.117-35.995-0.005-53.991
	c0.102-16.353,10.197-26.557,26.559-26.725C183.681,51.749,200.513,51.883,217.344,51.879z M216.661,67.004
	c-2.036,0.011-4.017,0.769-4.061,2.865c-0.105,5.033-3.653,6.411-7.317,8.297c-11.555,5.95-12.986,19.018-3.132,27.012
	c2.75,2.231,5.988,3.565,9.245,4.864c2.624,1.047,5.289,2.042,7.782,3.353c2.296,1.208,4.101,3.079,3.659,5.975
	c-0.436,2.858-2.654,4.076-5.184,4.77c-4.732,1.3-9.274-0.04-13.742-1.294c-3.594-1.009-6.109-0.729-7.36,3.365
	c-1.267,4.145-0.286,6.827,4.104,7.905c1.616,0.397,3.197,0.976,4.832,1.245c3.259,0.536,5.621,1.754,5.89,5.555
	c0.229,3.229,2.572,3.922,5.369,3.824c2.828-0.099,4.39-1.571,4.415-4.339c0.032-3.563,1.976-5.244,5.082-6.511
	c7.417-3.027,11.919-8.356,11.958-16.729c0.039-8.34-4.921-13.057-11.951-16.179c-3.65-1.621-7.405-3.013-11.013-4.718
	c-2.355-1.113-4.28-2.843-3.647-5.849c0.611-2.904,2.98-3.829,5.545-4.275c3.552-0.618,6.996,0.217,10.322,1.269
	c3.896,1.232,5.981,0.052,6.895-3.931c1.097-4.78,0.266-6.229-5.272-7.449c-3.801-0.837-7.62-1.244-8.163-6.401
	C220.695,67.523,218.663,66.952,216.661,67.004z"/>
<path class="st0" d="M58.13,143.374c13.621,0.202,26.74,5.075,37.77,15.183c8.64,7.917,14.189,17.666,16.645,29.143
	c0.988,4.618,1.331,9.3,1.045,14.007c-0.781,12.831-5.494,24.054-14.11,33.578c-8.439,9.328-18.923,15.137-31.23,17.665
	c-4.751,0.976-9.562,1.306-14.398,1.036c-12.228-0.683-23.239-4.707-32.842-12.338c-9.948-7.905-16.506-18.044-19.523-30.415
	c-1.326-5.439-1.765-10.97-1.314-16.55c1.005-12.456,5.713-23.346,14.109-32.585c8.283-9.115,18.531-14.874,30.567-17.46
	C48.8,143.789,52.802,143.408,58.13,143.374z M42.911,152.928c-0.313-0.034-0.59,0.106-0.875,0.193
	c-1.752,0.535-3.469,1.163-5.149,1.893c-6.762,2.938-12.594,7.16-17.474,12.69c-0.135,0.154-0.31,0.289-0.366,0.565
	c0.245,0.011,0.452,0.029,0.66,0.029c3.877,0.002,7.755-0.007,11.632,0.012c0.511,0.002,0.789-0.128,1.028-0.621
	c2.207-4.565,4.985-8.752,8.442-12.473c0.702-0.756,1.429-1.488,2.145-2.232c0.051-0.031,0.123-0.066,0.036-0.125
	C42.954,152.834,42.914,152.878,42.911,152.928z M69.954,194.798c3.167,0,6.334,0,9.501,0c0.172,0,0.345-0.005,0.517-0.004
	c0.222,0.001,0.305-0.118,0.295-0.326c-0.008-0.151-0.007-0.302-0.023-0.452c-0.137-1.35-0.267-2.699-0.459-4.043
	c-0.661-4.625-1.835-9.112-3.555-13.456c-0.261-0.66-0.264-0.661-0.973-0.661c-4.912-0.001-9.824,0-14.736,0
	c-0.908,0-0.798-0.017-0.798,0.811c-0.003,5.774-0.001,11.548-0.001,17.322c0,0.151,0.006,0.302,0.002,0.452
	c-0.008,0.239,0.095,0.361,0.343,0.354c0.172-0.005,0.345,0.002,0.517,0.002C63.706,194.798,66.83,194.798,69.954,194.798z
	 M70.024,202.346c-3.145,0-6.29,0-9.435,0c-0.172,0-0.345,0.006-0.517,0.002c-0.241-0.005-0.358,0.104-0.35,0.349
	c0.005,0.129-0.002,0.258-0.002,0.388c0,5.536-0.001,11.072,0.001,16.608c0,0.778-0.085,0.762,0.78,0.762c3.705,0,7.41,0,11.115,0
	c1.465,0,2.93-0.011,4.394,0.007c0.38,0.005,0.587-0.112,0.705-0.487c0.26-0.82,0.575-1.623,0.842-2.441
	c1.307-4.007,2.122-8.118,2.56-12.305c0.085-0.813,0.118-1.632,0.183-2.448c0.023-0.292-0.07-0.455-0.39-0.436
	c-0.172,0.01-0.345,0-0.517,0C76.271,202.346,73.147,202.346,70.024,202.346z M52.135,185.313c0-2.928,0.001-5.856-0.001-8.783
	c0-0.663-0.006-0.671-0.617-0.672c-4.628-0.002-9.257-0.002-13.885,0c-0.538,0-0.545,0.005-0.729,0.52
	c-2.042,5.714-3.153,11.615-3.541,17.66c-0.055,0.855-0.051,0.758,0.75,0.759c5.748,0.002,11.496,0.001,17.244,0.001
	c0.151,0,0.301-0.006,0.452-0.003c0.212,0.003,0.317-0.101,0.32-0.31c0.003-0.172,0.007-0.344,0.007-0.517
	C52.135,191.083,52.135,188.198,52.135,185.313z M96.878,194.798c2.8,0,5.601,0.002,8.401-0.001
	c0.603-0.001,0.622-0.023,0.556-0.624c-0.156-1.413-0.344-2.821-0.612-4.217c-0.921-4.795-2.554-9.333-4.889-13.621
	c-0.167-0.307-0.336-0.489-0.734-0.487c-4.976,0.015-9.952,0.008-14.928,0.011c-0.57,0-0.571,0.013-0.407,0.53
	c0.02,0.062,0.037,0.124,0.058,0.185c1.74,5.073,2.854,10.281,3.345,15.621c0.063,0.686,0.116,1.373,0.185,2.058
	c0.054,0.537,0.061,0.537,0.625,0.544c0.129,0.002,0.258,0,0.388,0C91.536,194.798,94.207,194.798,96.878,194.798z M16.779,194.798
	c2.756,0,5.511,0,8.267,0c0.723,0,0.67,0.012,0.718-0.647c0.093-1.288,0.185-2.575,0.318-3.86c0.482-4.658,1.4-9.226,2.766-13.705
	c0.221-0.725,0.219-0.729-0.561-0.729c-4.671-0.001-9.343,0.006-14.014-0.01c-0.468-0.002-0.731,0.142-0.957,0.559
	c-2.593,4.798-4.308,9.89-5.141,15.278c-0.138,0.892-0.208,1.795-0.315,2.692c-0.036,0.305,0.082,0.444,0.393,0.423
	c0.15-0.01,0.301-0.001,0.452-0.001C11.397,194.798,14.088,194.798,16.779,194.798z M42.751,202.346
	c-2.906,0-5.813-0.001-8.719,0.001c-0.698,0-0.712,0.005-0.668,0.716c0.08,1.289,0.201,2.574,0.348,3.857
	c0.501,4.374,1.41,8.66,2.757,12.851c0.233,0.724,0.125,0.684,0.929,0.684c4.65,0.001,9.301,0.001,13.951,0
	c0.861,0,0.785,0.049,0.786-0.821c0.002-5.49,0.001-10.98,0.001-16.47c0-0.108,0.003-0.215-0.002-0.323
	c-0.02-0.463-0.029-0.474-0.47-0.493c-0.15-0.007-0.301-0.002-0.452-0.002C48.391,202.346,45.571,202.346,42.751,202.346z
	 M84.71,220.399c0.218,0.088,0.457,0.055,0.69,0.055c4.868,0.002,9.736-0.005,14.604,0.012c0.492,0.002,0.763-0.129,0.994-0.592
	c1.367-2.745,2.487-5.582,3.317-8.535c0.772-2.743,1.281-5.534,1.539-8.371c0.055-0.61,0.036-0.62-0.561-0.62
	c-5.6-0.002-11.201-0.002-16.801,0c-0.564,0-0.564,0.01-0.598,0.566c-0.095,1.548-0.224,3.093-0.416,4.631
	c-0.522,4.176-1.406,8.273-2.692,12.282C84.729,220.006,84.611,220.179,84.71,220.399z M28.702,220.355
	c-0.067-0.263-0.125-0.49-0.183-0.717c-0.285-1.105-0.591-2.204-0.852-3.314c-1.04-4.413-1.635-8.89-1.911-13.412
	c-0.034-0.556-0.041-0.556-0.598-0.566c-0.086-0.002-0.172,0-0.259,0c-5.429,0-10.858,0-16.287,0c-0.129,0-0.259-0.005-0.388,0.002
	c-0.414,0.021-0.435,0.035-0.39,0.46c0.09,0.856,0.176,1.714,0.295,2.566c0.71,5.079,2.261,9.892,4.553,14.476
	c0.241,0.482,0.532,0.618,1.044,0.616c4.74-0.018,9.479-0.01,14.219-0.013C28.178,220.453,28.419,220.5,28.702,220.355z
	 M95.594,228.195c-0.025-0.051-0.049-0.103-0.074-0.154c-0.235,0-0.469,0-0.704,0c-4.156,0-8.312-0.004-12.468,0.003
	c-1.067,0.002-0.799-0.154-1.293,0.802c-3.167,6.138-7.292,11.518-12.597,15.968c-0.126,0.105-0.303,0.174-0.346,0.46
	c5.001-1.132,9.67-2.982,14.059-5.549C87.351,236.697,91.826,232.853,95.594,228.195z M68.436,152.233
	c0.125,0.353,0.331,0.451,0.486,0.591c1.347,1.209,2.631,2.482,3.846,3.824c3.05,3.371,5.608,7.084,7.733,11.099
	c0.182,0.344,0.347,0.568,0.81,0.565c4.306-0.021,8.613-0.012,12.919-0.016c0.135,0,0.305,0.071,0.436-0.172
	C87.64,160.076,78.923,154.809,68.436,152.233z M42.633,244.524c-0.167-0.365-0.352-0.486-0.503-0.633
	c-1.767-1.714-3.361-3.577-4.81-5.566c-2.215-3.041-4.047-6.301-5.574-9.736c-0.148-0.334-0.282-0.561-0.729-0.559
	c-4.178,0.02-8.357,0.011-12.535,0.015c-0.117,0-0.265-0.049-0.369,0.178C24.584,236.117,32.731,241.517,42.633,244.524z
	 M72.78,228.152c-0.243-0.15-0.418-0.109-0.584-0.109c-3.942-0.003-7.885-0.002-11.827-0.002c-0.129,0-0.259,0.002-0.388,0.008
	c-0.149,0.007-0.241,0.083-0.25,0.237c-0.007,0.129-0.01,0.258-0.01,0.387c0,4.179-0.001,8.359,0.003,12.538
	c0,0.161-0.053,0.34,0.13,0.553C65.237,238.256,69.456,233.665,72.78,228.152z M51.981,242.091c0.197-0.18,0.151-0.339,0.151-0.481
	c0.003-4.328,0.004-8.656,0.001-12.984c0-0.572-0.011-0.582-0.569-0.583c-3.725-0.003-7.45-0.002-11.175,0.002
	c-0.135,0-0.304-0.066-0.432,0.163C42.879,233.763,46.621,238.626,51.981,242.091z M59.846,155.317
	c-0.154,0.195-0.124,0.328-0.124,0.452c-0.002,3.983-0.003,7.966,0,11.949c0,0.576,0.01,0.581,0.632,0.582
	c3.703,0.002,7.406,0.002,11.109-0.002c0.161,0,0.34,0.055,0.548-0.127C68.809,163.083,64.826,158.759,59.846,155.317z
	 M40.755,168.211c0.029,0.084,0.103,0.08,0.162,0.08c3.594,0.004,7.188,0.008,10.782,0.005c0.409,0,0.433-0.033,0.434-0.522
	c0.004-4.003,0.002-8.006-0.002-12.009c0-0.116,0.044-0.267-0.124-0.325C48.636,157.325,41.458,165.477,40.755,168.211z"/>
<g>
	<path class="st0" d="M104.773,157.297c-0.01-40.475-0.007-80.95,0.027-121.425c0.008-9.732,4.303-13.928,14.125-13.969
		c16.831-0.07,33.662-0.037,50.493-0.038c16.831-0.001,33.662-0.018,50.493,0.026c10.66,0.028,14.483,3.747,14.853,14.265
		c0.023,0.666,0.051,1.332,0.059,1.999c0.035,3.049,1.557,4.626,4.623,4.649c2.166,0.016,4.332,0.002,6.497,0.002
		c3.363,0,4.797-1.812,4.768-5.036c-0.047-5.164,0.241-10.354-0.182-15.487c-0.71-8.622-4.524-15.583-12.183-20.111
		c-1.068-0.632-2.212-1.194-2.972-2.171H104.932c-0.611,0.597-1.373,1.015-2.151,1.413c-10.257,5.24-14.018,14.093-14.017,25.079
		c0.005,39.573-0.005,79.147-0.008,118.72C94.749,148.427,100.155,152.51,104.773,157.297z M157.823,9.032
		c7.955-0.066,15.91-0.068,23.865-0.006c1.533,0.012,3.202,0.488,3.1,2.449c-0.101,1.918-1.813,2.228-3.328,2.258
		c-3.977,0.077-7.956,0.026-11.934,0.026c-3.813,0.003-7.625,0.055-11.437-0.023c-1.51-0.031-3.232-0.312-3.345-2.234
		C154.629,9.544,156.286,9.045,157.823,9.032z"/>
	<path class="st0" d="M245.469,166.945c-5.096,0.136-10.532,5.347-10.629,10.657c-0.158,8.663-0.021,17.33-0.106,25.995
		c-0.099,10.141-4.148,14.224-14.351,14.24c-33.829,0.053-67.657,0.048-101.485,0.004c-0.05,0-0.095-0.004-0.145-0.004
		c-4.064,12.064-11.927,22.507-22.251,30.074c2.031,1.986,4.522,3.728,7.561,5.189c0.078,0.038,0.145,0.101,0.217,0.151h131.527
		c0.836-0.831,1.938-1.369,2.943-1.985c7.244-4.438,11.473-11.117,11.67-19.333c0.484-20.151,0.238-40.319,0.264-60.48
		C250.688,167.992,248.642,166.86,245.469,166.945z M182.011,241.751c-4.151,0.135-8.31,0.03-12.465,0.03
		c-3.989,0.004-7.981,0.102-11.967-0.023c-4.077-0.129-6.702-2.168-6.662-6.443c0.04-4.277,2.741-6.297,6.785-6.348
		c8.143-0.103,16.29-0.113,24.432,0.024c4.061,0.068,6.746,2.288,6.745,6.456C188.877,239.695,186.011,241.62,182.011,241.751z"/>
</g>
</svg>