<!-- Generator: Adobe Illustrator 21.1.0, SVG Export Plug-In  -->
<svg version="1.1"
	 xmlns="http://www.w3.org/2000/svg" xmlns:xlink="http://www.w3.org/1999/xlink" xmlns:a="http://ns.adobe.com/AdobeSVGViewerExtensions/3.0/"
	 x="0px" y="0px" width="492.682px" height="475.397px" viewBox="0 0 492.682 475.397"
	 style="overflow:scroll;enable-background:new 0 0 492.682 475.397;" xml:space="preserve">
<style type="text/css">
	.st0{fill:#0E2B4C;}
</style>
<defs>
</defs>
<path class="st0" d="M64.056,79.098c15.009,0.223,29.466,5.593,41.621,16.731c9.52,8.724,15.635,19.467,18.341,32.114
	c1.089,5.089,1.467,10.248,1.151,15.435c-0.86,14.139-6.054,26.507-15.548,37.001c-9.299,10.279-20.852,16.681-34.414,19.465
	c-5.235,1.075-10.537,1.439-15.866,1.142c-13.474-0.753-25.608-5.187-36.191-13.596c-10.962-8.711-18.189-19.883-21.514-33.515
	c-1.462-5.994-1.945-12.088-1.448-18.237c1.107-13.725,6.295-25.726,15.548-35.907c9.128-10.044,20.42-16.391,33.683-19.24
	C53.775,79.555,58.185,79.136,64.056,79.098z M47.286,89.627c-0.345-0.037-0.65,0.117-0.964,0.213
	c-1.93,0.589-3.823,1.282-5.674,2.086c-7.452,3.238-13.878,7.89-19.255,13.984c-0.149,0.169-0.341,0.318-0.403,0.622
	c0.27,0.013,0.499,0.032,0.727,0.032c4.273,0.002,8.545-0.008,12.818,0.013c0.563,0.003,0.87-0.141,1.132-0.685
	c2.432-5.031,5.493-9.644,9.302-13.745c0.774-0.833,1.575-1.64,2.363-2.46c0.057-0.035,0.135-0.073,0.04-0.138
	C47.333,89.523,47.289,89.571,47.286,89.627z M77.085,135.765c3.49,0,6.98,0,10.47,0c0.19,0,0.38-0.006,0.57-0.004
	c0.245,0.002,0.336-0.131,0.325-0.359c-0.008-0.166-0.008-0.333-0.025-0.498c-0.151-1.487-0.295-2.974-0.506-4.455
	c-0.728-5.096-2.022-10.041-3.917-14.827c-0.288-0.727-0.291-0.728-1.072-0.728c-5.413-0.001-10.826,0-16.239,0
	c-1,0-0.879-0.019-0.879,0.893c-0.003,6.363-0.002,12.725-0.001,19.088c0,0.166,0.007,0.333,0.002,0.499
	c-0.008,0.263,0.105,0.398,0.378,0.39c0.19-0.006,0.38,0.002,0.57,0.002C70.2,135.765,73.643,135.765,77.085,135.765z
	 M77.162,144.082c-3.466,0-6.931,0-10.397,0c-0.19,0-0.38,0.007-0.57,0.003c-0.266-0.006-0.395,0.115-0.385,0.384
	c0.005,0.142-0.002,0.285-0.002,0.427c0,6.1-0.001,12.201,0.001,18.301c0,0.857-0.094,0.84,0.859,0.84c4.083,0,8.166,0,12.248,0
	c1.614,0,3.228-0.012,4.842,0.007c0.419,0.005,0.646-0.124,0.777-0.536c0.287-0.904,0.634-1.788,0.928-2.69
	c1.44-4.415,2.338-8.945,2.821-13.56c0.094-0.896,0.13-1.798,0.201-2.697c0.025-0.322-0.077-0.501-0.429-0.48
	c-0.189,0.011-0.38,0-0.57,0C84.046,144.082,80.604,144.082,77.162,144.082z M57.45,125.313c0-3.226,0.001-6.453-0.001-9.679
	c-0.001-0.73-0.006-0.74-0.68-0.74c-5.1-0.003-10.201-0.002-15.301,0c-0.593,0-0.601,0.006-0.804,0.573
	c-2.25,6.296-3.474,12.799-3.902,19.46c-0.06,0.942-0.056,0.836,0.827,0.836c6.334,0.002,12.668,0.001,19.002,0.001
	c0.166,0,0.332-0.006,0.498-0.004c0.234,0.003,0.349-0.111,0.353-0.342c0.003-0.19,0.007-0.379,0.007-0.569
	C57.45,131.671,57.45,128.492,57.45,125.313z M106.754,135.765c3.086,0,6.171,0.002,9.257-0.001
	c0.664-0.001,0.685-0.025,0.612-0.687c-0.172-1.557-0.379-3.108-0.674-4.647c-1.015-5.284-2.814-10.285-5.387-15.009
	c-0.185-0.339-0.37-0.538-0.809-0.537c-5.483,0.016-10.966,0.009-16.449,0.013c-0.629,0-0.629,0.014-0.449,0.584
	c0.021,0.068,0.041,0.136,0.064,0.204c1.918,5.59,3.145,11.329,3.686,17.214c0.07,0.756,0.128,1.513,0.203,2.268
	c0.059,0.592,0.067,0.592,0.689,0.6c0.142,0.002,0.285,0,0.427,0C100.867,135.765,103.811,135.765,106.754,135.765z M18.489,135.765
	c3.036,0,6.073,0,9.109,0c0.796,0,0.739,0.013,0.791-0.713c0.103-1.419,0.204-2.837,0.351-4.253
	c0.532-5.133,1.542-10.167,3.048-15.102c0.244-0.799,0.241-0.803-0.618-0.804c-5.148-0.001-10.295,0.007-15.443-0.012
	c-0.516-0.002-0.806,0.156-1.054,0.616c-2.857,5.288-4.748,10.898-5.665,16.836c-0.152,0.983-0.229,1.978-0.347,2.966
	c-0.04,0.337,0.091,0.49,0.434,0.466c0.165-0.011,0.332-0.001,0.498-0.001C12.559,135.765,15.524,135.765,18.489,135.765z
	 M47.109,144.082c-3.203,0-6.405-0.001-9.608,0.001c-0.769,0-0.785,0.005-0.736,0.789c0.088,1.42,0.222,2.836,0.384,4.25
	c0.553,4.82,1.553,9.543,3.038,14.161c0.257,0.798,0.137,0.754,1.023,0.754c5.124,0.001,10.249,0.002,15.373,0
	c0.949,0,0.865,0.054,0.866-0.905c0.002-6.05,0.001-12.099,0.001-18.149c0-0.119,0.003-0.237-0.002-0.356
	c-0.022-0.51-0.032-0.522-0.518-0.543c-0.166-0.007-0.332-0.002-0.498-0.002C53.325,144.082,50.217,144.082,47.109,144.082z
	 M93.346,163.975c0.24,0.097,0.503,0.061,0.761,0.061c5.364,0.002,10.729-0.006,16.093,0.013c0.542,0.002,0.841-0.142,1.095-0.653
	c1.506-3.025,2.74-6.152,3.656-9.405c0.851-3.023,1.412-6.098,1.696-9.224c0.061-0.673,0.04-0.683-0.619-0.684
	c-6.171-0.002-12.343-0.002-18.514,0c-0.622,0-0.622,0.011-0.659,0.624c-0.105,1.706-0.247,3.408-0.459,5.104
	c-0.575,4.601-1.549,9.116-2.966,13.534C93.367,163.542,93.237,163.734,93.346,163.975z M31.628,163.928
	c-0.074-0.289-0.137-0.54-0.202-0.79c-0.314-1.217-0.651-2.429-0.939-3.652c-1.146-4.862-1.802-9.796-2.105-14.779
	c-0.037-0.613-0.045-0.612-0.658-0.624c-0.095-0.002-0.19-0.001-0.285-0.001c-5.983,0-11.965,0-17.948,0
	c-0.142,0-0.285-0.005-0.427,0.002c-0.456,0.023-0.479,0.038-0.43,0.507c0.099,0.944,0.194,1.888,0.325,2.828
	c0.782,5.597,2.492,10.901,5.017,15.952c0.265,0.531,0.586,0.681,1.15,0.679c5.223-0.019,10.446-0.011,15.669-0.014
	C31.051,164.035,31.317,164.088,31.628,163.928z M105.34,172.567c-0.027-0.057-0.054-0.113-0.081-0.17c-0.258,0-0.517,0-0.775,0
	c-4.58,0-9.159-0.005-13.739,0.003c-1.176,0.002-0.881-0.17-1.424,0.884c-3.49,6.763-8.036,12.692-13.881,17.596
	c-0.138,0.116-0.334,0.192-0.381,0.507c5.511-1.247,10.656-3.286,15.492-6.115C96.256,181.936,101.187,177.7,105.34,172.567z
	 M75.413,88.861c0.138,0.389,0.365,0.497,0.536,0.651c1.485,1.333,2.9,2.735,4.238,4.214c3.361,3.714,6.18,7.807,8.522,12.23
	c0.201,0.379,0.383,0.626,0.892,0.623c4.745-0.023,9.491-0.013,14.236-0.018c0.149,0,0.337,0.078,0.481-0.19
	C96.575,97.503,86.969,91.7,75.413,88.861z M46.98,190.56c-0.184-0.402-0.387-0.535-0.555-0.697
	c-1.947-1.889-3.704-3.942-5.301-6.134c-2.44-3.351-4.46-6.944-6.142-10.728c-0.163-0.368-0.311-0.618-0.804-0.616
	c-4.604,0.022-9.209,0.013-13.813,0.016c-0.129,0-0.292-0.054-0.406,0.196C27.09,181.296,36.068,187.247,46.98,190.56z
	 M80.2,172.519c-0.268-0.165-0.461-0.12-0.644-0.12c-4.344-0.003-8.689-0.002-13.033-0.002c-0.142,0-0.285,0.002-0.427,0.009
	c-0.164,0.008-0.266,0.091-0.276,0.261c-0.008,0.142-0.011,0.285-0.011,0.427c-0.001,4.605-0.001,9.211,0.003,13.816
	c0,0.178-0.058,0.375,0.143,0.61C71.887,183.653,76.536,178.594,80.2,172.519z M57.281,187.879c0.217-0.198,0.166-0.374,0.166-0.53
	c0.003-4.769,0.004-9.539,0.001-14.308c0-0.631-0.012-0.641-0.627-0.642c-4.105-0.003-8.21-0.002-12.315,0.002
	c-0.149,0-0.335-0.073-0.476,0.18C47.25,178.702,51.374,184.061,57.281,187.879z M65.947,92.259
	c-0.17,0.215-0.136,0.361-0.136,0.498c-0.002,4.389-0.003,8.778,0,13.167c0,0.634,0.011,0.641,0.696,0.641
	c4.081,0.002,8.161,0.002,12.242-0.003c0.177,0,0.375,0.061,0.603-0.14C75.824,100.817,71.434,96.051,65.947,92.259z
	 M44.909,106.467c0.032,0.093,0.113,0.088,0.178,0.088c3.961,0.005,7.921,0.009,11.882,0.005c0.45,0,0.477-0.037,0.478-0.575
	c0.004-4.411,0.002-8.822-0.002-13.234c0-0.128,0.049-0.294-0.137-0.358C53.594,94.472,45.684,103.455,44.909,106.467z"/>
<path class="st0" d="M360.776,152.748c0-10.925,0-20.529,0-30.689c-3.073,0-5.694,0.109-8.305-0.019
	c-10.078-0.497-16.244-6.914-16.262-16.99c-0.039-21.986-0.017-43.972-0.014-65.958c0.001-10.296,6.432-16.868,16.737-16.881
	c34.819-0.044,69.638-0.022,104.458-0.027c6.331-0.001,12.664-0.125,18.992,0.019c9.528,0.217,16.069,6.514,16.145,16.005
	c0.182,22.653,0.208,45.31,0.062,67.963c-0.062,9.684-6.941,15.836-17.409,15.871c-24.654,0.082-49.31,0.148-73.962-0.074
	c-5.143-0.046-9.051,1.117-12.811,4.864C379.818,135.39,370.744,143.462,360.776,152.748z"/>
<path class="st0" d="M237.854,475.397c-22.309,0-44.619,0-66.928,0c-7.582,0-11.725-4.064-11.731-11.704
	c-0.023-27.144-0.015-54.288,0.021-81.431c0.009-7.026,4.134-11.24,11.148-11.239c44.62,0.002,89.241,0.043,133.861,0.113
	c7.58,0.012,11.333,3.603,11.388,11.36c0.157,22.135,0.111,44.271,0.128,66.407c0.004,5.159,0.048,10.32-0.114,15.475
	c-0.23,7.314-3.923,10.876-11.34,10.892c-22.144,0.047-44.287,0.017-66.431,0.017C237.854,475.323,237.854,475.36,237.854,475.397z
	 M237.511,433.94c1.756-0.925,3.571-1.694,5.187-2.763c12.751-8.441,25.464-16.938,38.187-25.42
	c7.191-4.794,14.517-9.404,21.461-14.532c1.574-1.163,2.653-4.244,2.384-6.228c-0.187-1.381-2.953-3.049-4.781-3.369
	c-1.449-0.254-3.346,1.158-4.832,2.148c-17.98,11.983-35.972,23.95-53.82,36.128c-2.969,2.025-4.939,1.81-7.778-0.143
	c-11.777-8.104-23.736-15.944-35.626-23.884c-6.635-4.431-13.168-9.03-19.975-13.18c-1.506-0.918-4.244-0.87-5.907-0.128
	c-1.223,0.546-2.49,3.161-2.171,4.472c0.45,1.846,2.035,3.806,3.677,4.913c19.847,13.381,39.789,26.622,59.729,39.864
	C234.459,432.621,235.867,433.131,237.511,433.94z"/>
<path class="st0" d="M489.358,237.491c-1.431,66.548-25.833,121.914-75.569,165.558c-17.764,15.588-37.852,27.618-59.846,36.379
	c-6.836,2.723-12.616,0.75-15.061-5.106c-2.342-5.611,0.582-11.465,7.273-14.224c33.709-13.901,61.65-35.271,83.437-64.545
	c23.385-31.42,35.892-66.815,38.242-105.847c1.863-30.938-3.737-60.56-15.738-89.065c-3.738-8.878,1.612-17.025,10.41-15.322
	c3.053,0.591,6.834,3.426,8.112,6.227c10.018,21.954,15.825,45.081,17.678,69.166C488.741,226.515,489.035,232.33,489.358,237.491z"
	/>
<path class="st0" d="M56.236,224.369c-2.612,25.527-0.234,50.405,7.085,74.727c12.522,41.612,36.185,75.556,70.779,101.922
	c2.502,1.907,4.949,4.688,5.949,7.573c1.448,4.18-0.043,8.329-3.951,10.935c-4.196,2.798-8.499,2.475-12.546-0.468
	c-14.206-10.33-26.978-22.21-38.229-35.702c-26.174-31.388-42.393-67.323-48.632-107.68c-2.73-17.66-3.262-35.452-1.297-53.259
	c0.674-6.104,5.319-9.959,11.265-9.571C52.59,213.235,56.445,217.964,56.236,224.369z"/>
<path class="st0" d="M264.894,0c12.576,1.725,28.389,3.667,44.115,6.162c6.227,0.988,9.357,6.358,8.24,12.176
	c-1.079,5.614-6.218,8.99-12.351,8.109c-0.989-0.142-1.989-0.241-2.96-0.462c-15.516-3.537-31.255-4.641-47.109-4.039
	c-50.761,1.927-94.225,20.915-130.668,56.182c-7.194,6.962-12.516,7.796-17.601,2.71c-5.026-5.028-4.208-10.483,2.991-17.545
	C143.391,30.102,183.66,9.738,230.686,3.18C240.879,1.758,251.198,1.244,264.894,0z"/>
<path class="st0" d="M295.523,177.149c-0.092-0.286-0.19-0.571-0.289-0.856c-0.189-0.552-0.369-1.073-0.497-1.575
	c-0.957-3.773-2.817-9.246-7.909-13.207c-0.905-0.704-1.703-1.764-2.034-2.701c-9.029-25.569-32.58-42.659-59.997-43.538
	c-0.652-0.021-1.301-0.031-1.951-0.031c-25.445,0-49.211,16.048-59.138,39.935c-1.273,3.061-2.371,5.705-5.087,7.754
	c-2.122,1.602-3.304,4.195-4.346,6.483c-0.292,0.641-0.58,1.276-0.887,1.878c-0.621,1.225-0.977,2.487-1.323,3.708
	c-0.136,0.486-0.274,0.972-0.428,1.449l-0.106,0.326v9.358l0.338,0.532c0.085,0.134,0.183,0.266,0.284,0.397
	c1.12,6.117,3.334,12.76,10.838,16.27c0.17,0.238,0.418,0.814,0.557,1.139l0.153,0.352c8.388,18.96,22.475,31.525,41.869,37.346
	c0.75,0.224,1.5,0.454,2.249,0.685c0.89,0.274,1.789,0.548,2.694,0.817c1.477,3.64,5.042,6.209,9.211,6.209
	c5.491,0,9.943-4.451,9.943-9.943c0-5.491-4.452-9.943-9.943-9.943c-2.961,0-5.611,1.301-7.433,3.355
	c-27.614-5.759-46.393-31.72-42.923-59.744c3.506-28.321,25.844-48.1,54.321-48.1c2.77,0,5.593,0.197,8.39,0.586
	c13.703,1.901,26.53,9.671,35.19,21.317c8.657,11.642,12.404,26.164,10.278,39.84c-0.478,3.077-1.237,6.211-1.971,9.242
	c-0.353,1.459-0.707,2.918-1.035,4.384l-0.538,2.409l2.459,0.22c0.684,0.061,1.357,0.092,2.001,0.092
	c6.431,0,11.015-2.963,14.015-9.059c0.933-1.899,1.575-3.89,2.194-5.816c0.269-0.834,0.538-1.668,0.83-2.491l0.125-0.351v-8.401
	L295.523,177.149z"/>
<path class="st0" d="M222.72,131.672c-25.076,0.113-47.003,22.268-46.964,47.45c0.037,23.589,15.945,42.366,38.153,47.06
	c1.824-0.775,3.8-1.189,5.819-1.189c2.883,0,5.569,0.835,7.854,2.255c23.914-1.455,43.987-22.763,43.822-47.133
	C271.219,152.784,249.88,131.55,222.72,131.672z"/>
<g>
	<path class="st0" d="M289.69,216.973c-0.574-2.369-1.167-4.818-1.541-7.223c-0.169-1.086-0.278-2.179-0.353-3.275
		c-2.75,1.395-5.873,2.118-9.332,2.118c-0.8,0-1.624-0.038-2.449-0.112l-1.998-0.178v0.376l0.097,0.274
		c0.228,0.644,0.438,1.295,0.648,1.947c0.484,1.505,0.986,3.062,1.715,4.546c2.345,4.764,5.928,7.08,10.954,7.08
		c0.503,0,1.03-0.024,1.564-0.072l1.922-0.172l-0.42-1.883C290.242,219.254,289.965,218.113,289.69,216.973z"/>
	<path class="st0" d="M333.343,238.161c2.549,0,5.019,0.769,7.104,2.167c5.367-1.482,10.192-4.119,14.254-7.577
		c7.368-6.669,12.154-16.182,12.347-26.564c0.383-20.624-15.643-37.18-36.449-37.652c-19.863-0.451-36.667,16.047-36.986,36.313
		c-0.289,18.297,13.326,34.093,30.716,37.048C326.64,239.589,329.828,238.161,333.343,238.161z"/>
	<path class="st0" d="M352.067,255.608c-1.999,0.839-4.072,1.588-6.224,2.234c-0.579,0.173-1.15,0.348-1.722,0.524
		c-0.056,0.017-0.112,0.034-0.168,0.051c-2.336,3.505-6.274,5.662-10.61,5.662c-7.042,0-12.771-5.729-12.771-12.77
		c0-0.208,0.021-0.41,0.031-0.615c-8.249,2.097-16.24,6.827-23.197,14.242c-4.898,5.221-8.484,11.671-11.582,16.022
		c-8.204-10.297-15.667-22.132-25.497-31.477c-7.839-7.451-16.916-12.168-26.375-14.105c0.462,1.439,0.718,2.97,0.718,4.561
		c0,8.239-6.703,14.942-14.942,14.942c-5.239,0-9.982-2.692-12.678-7.033c-0.232-0.071-0.465-0.143-0.696-0.213
		c-0.737-0.228-1.472-0.453-2.208-0.673c-3.259-0.978-6.361-2.154-9.339-3.483c-0.352,0.233-0.706,0.458-1.055,0.7
		c-29.63,20.517-38.609,51.186-39.896,85.585c47.023,0,93.122,0,139.802,0c-0.27-4.836-0.51-9.128-0.794-14.208
		c29.8,0,59.001,0,88.476,0c0.372-18.344-4.677-34.103-15.625-47.781C361.612,262.648,356.993,258.591,352.067,255.608z"/>
	<path class="st0" d="M386.561,201.31c-0.121-0.373-0.228-0.753-0.334-1.133c-0.27-0.954-0.549-1.941-1.034-2.898
		c-0.24-0.471-0.465-0.967-0.693-1.468c-0.814-1.788-1.738-3.814-3.397-5.067c-2.123-1.602-2.981-3.668-3.976-6.061
		c-7.759-18.67-26.334-31.213-46.222-31.213c-0.508,0-1.015,0.008-1.525,0.024c-12.363,0.397-23.715,5.017-32.467,12.688
		c1.609,3.148,2.329,5.954,2.672,7.308c0.067,0.264,0.161,0.542,0.259,0.828c6.484-6.703,14.923-11.131,23.844-12.368
		c2.186-0.304,4.392-0.458,6.557-0.458c22.258,0,39.717,15.459,42.458,37.595c2.711,21.904-11.966,42.195-33.549,46.696
		c-1.424-1.605-3.495-2.622-5.809-2.622c-4.292,0-7.771,3.479-7.771,7.771s3.479,7.771,7.771,7.771c3.259,0,6.045-2.008,7.2-4.853
		c0.708-0.21,1.41-0.425,2.106-0.639c0.586-0.18,1.171-0.36,1.758-0.535c15.159-4.55,26.169-14.371,32.725-29.19l0.12-0.275
		c0.109-0.254,0.302-0.704,0.436-0.89c5.865-2.744,7.596-7.935,8.471-12.717c0.079-0.102,0.156-0.206,0.222-0.311l0.264-0.416
		v-7.314L386.561,201.31z"/>
</g>
</svg>